Coordinates
version=1
nRows=7
nColumns=40
inDegrees=yes

Units are S.I. units (second, meters, Newtons, ...)
Angles are in degrees.

endheader
time	pelvis_tilt	pelvis_list	pelvis_rotation	pelvis_tx	pelvis_ty	pelvis_tz	hip_flexion_r	hip_adduction_r	hip_rotation_r	knee_angle_r	knee_angle_r_beta	ankle_angle_r	subtalar_angle_r	mtp_angle_r	hip_flexion_l	hip_adduction_l	hip_rotation_l	knee_angle_l	knee_angle_l_beta	ankle_angle_l	subtalar_angle_l	mtp_angle_l	lumbar_extension	lumbar_bending	lumbar_rotation	arm_flex_r	arm_add_r	arm_rot_r	elbow_flex_r	pro_sup_r	wrist_flex_r	wrist_dev_r	arm_flex_l	arm_add_l	arm_rot_l	elbow_flex_l	pro_sup_l	wrist_flex_l	wrist_dev_l
     51.35750000	     -4.62305542	     -6.19084349	     -1.55264778	      0.94706982	      0.91610452	      0.46700090	     23.87096278	      2.01812855	    -12.93011391	     22.63906297	     22.63906297	      5.49833300	     -3.87319653	     -3.19440599	      9.12584522	    -12.45959316	     -4.43157048	     43.37684364	     43.37684364	     13.07307419	    -17.10008884	     -6.41588959	    -11.16987689	      5.81049115	      3.53329520	    -13.66251831	    -11.87193500	     -3.50708997	     26.79523830	     46.47152323	      0.00000000	      0.00000000	     16.64108888	    -18.06325013	     -6.33891080	    109.82955026	     48.50589415	      0.00000000	      0.00000000
     51.36857143	     -4.64373566	     -6.20731616	     -1.32253171	      0.94673924	      0.91744286	      0.46904288	     23.07159007	      2.05194831	    -13.56088492	     22.16719036	     22.16719036	      6.03650571	     -2.89099406	     -3.40512559	     11.27225934	    -12.68540278	     -3.40513261	     47.43340295	     47.43340295	     11.75375213	    -17.85984563	     -3.40442442	    -11.20775969	      5.74756542	      2.72972115	    -11.65330109	    -12.05421210	     -1.29828889	     26.05903567	     46.33359337	      0.00000000	      0.00000000	     14.49332163	    -17.53796453	     -7.85883793	    110.17616666	     48.67266823	      0.00000000	      0.00000000
     51.37964286	     -4.51431716	     -6.31671343	     -1.14275374	      0.94639406	      0.91889347	      0.47122131	     22.10823540	      2.28649846	    -13.91860039	     21.65815689	     21.65815689	      6.46887091	     -2.38559720	     -3.53889832	     13.21348710	    -13.11592558	     -2.68083243	     51.19019037	     51.19019037	      9.57894341	    -18.50145240	     -2.73777074	    -11.46358601	      5.76595867	      3.05291417	    -10.46707615	    -11.99531762	     -1.22871599	     26.50360060	     46.31954905	      0.00000000	      0.00000000	     13.40853418	    -16.78764161	     -7.50181523	    109.59354834	     48.63477085	      0.00000000	      0.00000000
     51.39071429	     -4.53686113	     -6.37673034	     -0.96469054	      0.94593531	      0.92010663	      0.47322230	     21.24278666	      2.45275467	    -14.41553019	     21.00945883	     21.00945883	      6.84101985	     -1.62439512	     -3.72294895	     15.42744302	    -13.42199637	     -1.90057834	     54.89538340	     54.89538340	      7.81290792	    -18.80834373	     -1.32039205	    -11.53711959	      5.75583379	      3.25827725	     -9.26306023	    -12.00954392	     -1.15894257	     26.94124872	     46.30591634	      0.00000000	      0.00000000	     12.12301603	    -16.11536711	     -7.24739525	    108.62883881	     48.59526067	      0.00000000	      0.00000000
     51.40178571	     -4.51874523	     -6.16210625	     -0.83084510	      0.94536520	      0.92141672	      0.47476474	     20.39219322	      2.24189362	    -15.03763229	     20.47290929	     20.47290929	      7.08364357	     -0.40230040	     -4.53639351	     17.86796648	    -12.93646890	     -0.63693798	     58.94951942	     58.94951942	      9.22037302	    -18.72986770	      8.63854940	    -11.61952573	      5.47062409	      3.27821204	     -7.73629017	    -12.09713387	     -0.41488241	     27.11993283	     46.25126670	      0.00000000	      0.00000000	     10.82092628	    -15.37912046	     -7.51533963	    107.06313464	     48.61011797	      0.00000000	      0.00000000
     51.41285714	     -4.46724018	     -6.15214731	     -0.76790962	      0.94479501	      0.92255203	      0.47674037	     19.55207996	      2.40072623	    -15.18416491	     19.98331691	     19.98331691	      7.39912140	      0.02407911	     -4.61163745	     19.90801850	    -13.07634039	     -0.04592985	     62.03708139	     62.03708139	      7.65458410	    -18.96927889	      9.05617956	    -11.82348274	      5.34727900	      3.66552840	     -6.31458433	    -12.16387811	     -0.39850508	     27.62238007	     46.24141096	      0.00000000	      0.00000000	      9.51957069	    -14.66595063	     -7.07276296	    106.04023333	     48.55598641	      0.00000000	      0.00000000
     51.42392857	     -4.57957428	     -6.22292387	     -0.62809486	      0.94410064	      0.92339921	      0.47864210	     18.80387316	      2.62653592	    -15.56285798	     19.32145614	     19.32145614	      7.67400609	      0.64626009	     -4.75071309	     22.21109903	    -13.16532291	      0.76606768	     64.94002537	     64.94002537	      6.72936614	    -19.06838030	     10.08525582	    -11.77315789	      5.28582811	      3.80562013	     -4.86354554	    -12.25902234	     -0.36850306	     28.10221271	     46.23144455	      0.00000000	      0.00000000	      8.17902321	    -14.20630146	     -6.84564421	    104.00125400	     48.49655175	      0.00000000	      0.00000000
